<svg width="24.000000" height="24.000000" viewBox="0 0 24 24" fill="none" xmlns="http://www.w3.org/2000/svg" xmlns:xlink="http://www.w3.org/1999/xlink">
	<desc>
			Created with Pixso.
	</desc>
	<defs>
		<clipPath id="clip11_6978">
			<rect id="Solid" width="24.000000" height="24.000000" fill="white" fill-opacity="0"/>
		</clipPath>
	</defs>
	<g clip-path="url(#clip11_6978)">
		<path id="Vector" d="M10 18C10 19.1001 10.9 20 12 20C13.1 20 14 19.1001 14 18C14 16.8999 13.1 16 12 16C10.9 16 10 16.8999 10 18ZM10 6C10 7.1001 10.9 8 12 8C13.1 8 14 7.1001 14 6C14 4.8999 13.1 4 12 4C10.9 4 10 4.8999 10 6ZM10 12C10 13.1001 10.9 14 12 14C13.1 14 14 13.1001 14 12C14 10.8999 13.1 10 12 10C10.9 10 10 10.8999 10 12Z" fill="#161616" fill-opacity="1.000000" fill-rule="nonzero"/>
	</g>
</svg>
