<svg width="16.000000" height="16.000000" viewBox="0 0 16 16" fill="none" xmlns="http://www.w3.org/2000/svg" xmlns:xlink="http://www.w3.org/1999/xlink">
	<desc>
			Created with Pixso.
	</desc>
	<defs>
		<clipPath id="clip2_77">
			<rect id="ic:baseline-favorite-border" width="16.000000" height="16.000000" fill="white" fillOpacity="0"/>
		</clipPath>
	</defs>
	<g clipPath="url(#clip2_77)">
		<path id="Vector" d="M7.09131 2.69165C6.50659 2.33398 5.8222 2.12793 5.12 2.12793C3.1488 2.12793 1.59998 3.67676 1.59998 5.64795C1.59998 8.06714 3.776 10.0383 7.07196 13.0334L8 13.8718L8.92798 13.0271C12.224 10.0383 14.4 8.06714 14.4 5.64795C14.4 3.67676 12.8512 2.12793 10.88 2.12793C10.1777 2.12793 9.49335 2.33398 8.90863 2.69165C8.56604 2.90137 8.25769 3.16284 8 3.46558C7.74225 3.16284 7.4339 2.90137 7.09131 2.69165ZM7.99689 12.252L8.12018 12.1396L8.12292 12.1372L8.1239 12.1362L8.12592 12.1345L8.13 12.1309Q9.69238 10.7141 10.3458 10.0845Q11.377 9.09106 11.9733 8.36157Q12.6172 7.57373 12.9134 6.9104Q13.2 6.2688 13.2 5.64795Q13.2 5.28906 13.1019 4.95923Q13.0669 4.8418 13.0195 4.72778Q12.9282 4.50879 12.7969 4.31714Q12.6797 4.14624 12.5306 3.99731Q12.3816 3.84814 12.2106 3.73096Q12.019 3.59961 11.8 3.5083Q11.6862 3.46094 11.5687 3.42603Q11.239 3.32788 10.88 3.32788Q10.7203 3.32788 10.5633 3.34814Q10.1707 3.39868 9.79443 3.57544Q9.43927 3.74243 9.15851 3.99292Q9.02802 4.10913 8.91357 4.24365L8 5.31641L7.08636 4.24365Q6.97192 4.10913 6.84149 3.99292Q6.56067 3.74243 6.20551 3.57544Q5.82922 3.39868 5.43665 3.34814Q5.2796 3.32788 5.12 3.32788Q4.76099 3.32788 4.43121 3.42603Q4.31372 3.46094 4.19989 3.5083Q3.9809 3.59961 3.78931 3.73096Q3.61835 3.84814 3.4693 3.99731Q3.32025 4.14624 3.20306 4.31738Q3.07172 4.50879 2.98047 4.72778Q2.93304 4.84155 2.89807 4.95923Q2.79999 5.28906 2.79999 5.64795Q2.79999 6.26758 3.08557 6.90845Q3.38074 7.57056 4.02246 8.35718Q4.61676 9.08569 5.64459 10.0781Q6.29602 10.707 7.85376 12.1226L7.86005 12.1282L7.86163 12.1296L7.86322 12.1311L7.86639 12.134L7.86792 12.1355L7.86951 12.1367L7.87109 12.1382L7.87268 12.1396L7.87427 12.1411L7.87585 12.1426L7.87744 12.144L7.87903 12.1455L7.99689 12.252Z" fill="#595959" fillOpacity="1.000000" fill-rule="evenodd"/>
	</g>
</svg>
