<svg width="24.000000" height="24.000000" viewBox="0 0 24 24" fill="none" xmlns="http://www.w3.org/2000/svg" xmlns:xlink="http://www.w3.org/1999/xlink">
	<desc>
			Created with Pixso.
	</desc>
	<defs/>
	<rect id="logo-sign" rx="12.000000" width="24.000000" height="24.000000" fill="#EF1C31" fill-opacity="1.000000"/>
	<path id="Vector" d="M14.375 9.06934C14.375 9.97314 13.6521 10.7058 12.7603 10.7058C11.8685 10.7058 11.1455 9.97314 11.1455 9.06934C11.1455 8.16528 11.8685 7.43262 12.7603 7.43262C13.6521 7.43262 14.375 8.16528 14.375 9.06934Z" fill="#FFFFFF" fill-opacity="1.000000" fill-rule="nonzero"/>
	<path id="Vector" d="M7.76823 11.9189L9.95988 13.2126L4.87996 19.9597C4.65788 20.2546 5.06124 20.6123 5.32748 20.3564L12.629 13.3411C13.2243 12.769 12.9092 11.7627 12.0939 11.6326L8.10128 10.9946C7.55607 10.9075 7.29276 11.6382 7.76823 11.9189Z" fill="#FFFFFF" fill-opacity="1.000000" fill-rule="nonzero"/>
	<path id="Vector" d="M12.2835 14.804L10.5771 16.4456L11.729 17.9868L9.83715 19.0903C9.53105 19.269 9.73313 19.7375 10.0731 19.6372L13.3695 18.6665C14.0243 18.4736 14.2977 17.6958 13.9075 17.1357L12.2835 14.804Z" fill="#FFFFFF" fill-opacity="1.000000" fill-rule="nonzero"/>
	<path id="Vector" d="M15.3129 4.91406C16.124 5.32642 16.8787 5.875 17.5421 6.56372C17.9206 6.96021 18.249 7.37842 18.5354 7.81055C18.6876 8.04004 18.9919 8.11987 19.2295 7.98071L21.4949 6.65259C21.7388 6.50952 21.8165 6.19238 21.6548 5.96045C21.4659 5.68945 21.2609 5.42041 21.0399 5.15698C19.7887 3.65942 18.3927 2.3811 16.5045 1.62622C16.25 1.52441 15.9672 1.66309 15.8764 1.92188L15.0484 4.27954C14.962 4.52588 15.0802 4.79565 15.3129 4.91406Z" fill="#FFFFFF" fill-opacity="1.000000" fill-rule="nonzero"/>
	<path id="Vector" d="M3.67796 7.21899C4.70451 6.23145 6.17786 5.19409 7.27379 4.70923C7.31531 4.69141 7.35733 4.67334 7.39976 4.65552C7.67365 4.53979 7.80694 4.21948 7.67928 3.95093L7.05939 2.64746C6.93739 2.39087 6.62575 2.28638 6.38123 2.43115C4.94442 3.28076 3.91312 4.354 3.17528 5.31665C2.91953 5.65283 2.69044 5.98877 2.48315 6.32715C2.3524 6.54077 2.41086 6.81689 2.6107 6.96753L3.00662 7.26636C3.20963 7.41968 3.49466 7.39526 3.67796 7.21899Z" fill="#FFFFFF" fill-opacity="1.000000" fill-rule="nonzero"/>
	<path id="Vector" d="M14.7212 1.10669C14.1506 0.997803 13.5389 0.930664 12.8805 0.911377C10.977 0.843018 9.38535 1.13916 8.0572 1.63281C7.79115 1.73169 7.67563 2.03906 7.79741 2.29541L8.5373 3.85327C8.63954 4.0686 8.87922 4.18042 9.11263 4.13232C10.5828 3.82983 12.1656 3.86182 13.6605 4.27686C13.924 4.3501 14.2049 4.21436 14.2958 3.95654L15.0755 1.74316C15.1735 1.46509 15.0109 1.16211 14.7212 1.10669Z" fill="#FFFFFF" fill-opacity="1.000000" fill-rule="nonzero"/>
	<path id="Vector" d="M2.79787 8.14185L2.37301 7.81982C2.11933 7.62769 1.75249 7.71802 1.63302 8.01318C0.248768 11.4319 0.840542 14.5845 0.940685 15.053C0.940685 15.0881 0.979382 15.1128 1.01535 15.1128C1.06455 15.1128 1.09432 15.0676 1.09432 15.019C1.00278 14.437 0.627304 11.2441 2.80435 8.19702L2.80831 8.19189C2.82072 8.17651 2.81361 8.15381 2.79787 8.14185Z" fill="#FFFFFF" fill-opacity="1.000000" fill-rule="nonzero"/>
	<path id="Vector" d="M19.3789 9.38721C20.2883 11.501 20.4092 13.6116 20.4101 14.5735C20.4101 14.8645 20.6437 15.1125 20.9347 15.1125L23.2209 15.1125C23.4563 15.1125 23.6581 14.948 23.6906 14.7148C23.8376 13.6589 24.07 10.6543 22.5951 7.57104C22.4726 7.31519 22.1565 7.22656 21.9117 7.37036L19.5854 8.73462C19.3608 8.86646 19.276 9.14795 19.3789 9.38721Z" fill="#FFFFFF" fill-opacity="1.000000" fill-rule="nonzero"/>
</svg>
