<svg width="24.000000" height="24.000000" viewBox="0 0 24 24" fill="none" xmlns="http://www.w3.org/2000/svg" xmlns:xlink="http://www.w3.org/1999/xlink">
	<desc>
			Created with Pixso.
	</desc>
	<defs>
		<clipPath id="clip2_249">
			<rect id="mi:notification" width="16.000000" height="16.000000" transform="translate(4.000000 4.000000)" fill="white" fill-opacity="0"/>
		</clipPath>
	</defs>
	<g clip-path="url(#clip2_249)">
		<path id="Vector" d="M10.7394 6.0498C10.8409 5.79858 11.0153 5.58374 11.2397 5.43213C11.4644 5.28076 11.7291 5.19995 12 5.19995C12.2709 5.19995 12.5355 5.28076 12.7601 5.43213C12.9847 5.58374 13.1589 5.79858 13.2605 6.0498C14.266 6.32617 15.1528 6.92529 15.7849 7.75464C16.417 8.58398 16.7594 9.5979 16.7594 10.6406L16.7594 13.8342L18.0051 15.7026C18.0734 15.8052 18.1127 15.9241 18.1187 16.0471C18.1246 16.1702 18.097 16.2922 18.0389 16.4009C17.981 16.5093 17.8945 16.6001 17.7888 16.6633C17.6832 16.7266 17.5625 16.76 17.4393 16.76L14.356 16.76C14.274 17.3264 13.9908 17.8445 13.5581 18.219C13.1255 18.5938 12.5723 18.8 12 18.8C11.4276 18.8 10.8744 18.5938 10.4418 18.219C10.009 17.8445 9.72583 17.3264 9.64404 16.76L6.56055 16.76C6.43738 16.76 6.31665 16.7266 6.21106 16.6633C6.10547 16.6001 6.01904 16.5093 5.96094 16.4009C5.90283 16.2922 5.87537 16.1702 5.88135 16.0471C5.88721 15.9241 5.92651 15.8052 5.99487 15.7026L7.24048 13.8342L7.24048 10.6406C7.24048 8.44849 8.72266 6.60181 10.7394 6.0498ZM10.757 16.76C10.8868 17.1826 11.0742 17.4409 11.2764 17.584C11.4486 17.7058 11.7893 17.7712 12.0002 17.7712C12.2113 17.7712 12.5765 17.7312 12.8347 17.5486C13.1624 17.3167 13.2485 16.959 13.3187 16.76L10.757 16.76ZM12 6.85278C11.0983 6.85278 9.93628 7.28174 9.29871 7.91919C8.66113 8.55688 8.30298 9.73901 8.30298 10.6406L8.30298 14.0403C8.30298 14.1746 8.26331 14.3059 8.18872 14.4177L7.24048 15.7026L16.7594 15.7026L15.8042 14.4177C15.73 14.3059 15.6904 14.1746 15.6907 14.0403L15.6907 10.6406C15.6907 9.73901 15.3325 8.55688 14.6949 7.91919C14.0574 7.28174 12.9016 6.85278 12 6.85278Z" fill="#595959" fill-opacity="1.000000" fill-rule="nonzero"/>
	</g>
</svg>
